<mxfile host="app.diagrams.net" modified="2022-11-26T03:31:13.886Z" agent="5.0 (Macintosh; Intel Mac OS X 10_15_7) AppleWebKit/537.36 (KHTML, like Gecko) Chrome/107.0.0.0 Safari/537.36" etag="fELLJSlvoedWuUybWQlW" version="20.6.0" type="github">
  <diagram id="y04c6Cq1Ym9mLKYABMxx" name="第 1 页">
    <mxGraphModel dx="946" dy="589" grid="1" gridSize="10" guides="1" tooltips="1" connect="1" arrows="1" fold="1" page="1" pageScale="1" pageWidth="827" pageHeight="1169" math="0" shadow="0">
      <root>
        <mxCell id="0" />
        <mxCell id="1" parent="0" />
        <mxCell id="l1CNJLfKo-Qp4PkCk93o-2" value="" style="rounded=0;orthogonalLoop=1;jettySize=auto;html=1;" parent="1" source="CiukaIkG0FlDaOwGfWqb-1" target="l1CNJLfKo-Qp4PkCk93o-1" edge="1">
          <mxGeometry relative="1" as="geometry" />
        </mxCell>
        <mxCell id="hbApJSWAoA58bv4psaAf-2" style="edgeStyle=none;rounded=0;orthogonalLoop=1;jettySize=auto;html=1;" edge="1" parent="1" source="CiukaIkG0FlDaOwGfWqb-1" target="hbApJSWAoA58bv4psaAf-1">
          <mxGeometry relative="1" as="geometry" />
        </mxCell>
        <mxCell id="hbApJSWAoA58bv4psaAf-7" style="edgeStyle=none;rounded=0;orthogonalLoop=1;jettySize=auto;html=1;" edge="1" parent="1" source="CiukaIkG0FlDaOwGfWqb-1" target="hbApJSWAoA58bv4psaAf-6">
          <mxGeometry relative="1" as="geometry" />
        </mxCell>
        <mxCell id="CiukaIkG0FlDaOwGfWqb-1" value="scipy" style="rounded=0;whiteSpace=wrap;html=1;" parent="1" vertex="1">
          <mxGeometry x="220" y="280" width="90" height="30" as="geometry" />
        </mxCell>
        <mxCell id="l1CNJLfKo-Qp4PkCk93o-1" value="statsmodel" style="rounded=0;whiteSpace=wrap;html=1;" parent="1" vertex="1">
          <mxGeometry x="350" y="110" width="90" height="30" as="geometry" />
        </mxCell>
        <mxCell id="hbApJSWAoA58bv4psaAf-3" style="edgeStyle=none;rounded=0;orthogonalLoop=1;jettySize=auto;html=1;" edge="1" parent="1" source="hbApJSWAoA58bv4psaAf-1" target="l1CNJLfKo-Qp4PkCk93o-1">
          <mxGeometry relative="1" as="geometry" />
        </mxCell>
        <mxCell id="hbApJSWAoA58bv4psaAf-1" value="pandas" style="rounded=0;whiteSpace=wrap;html=1;" vertex="1" parent="1">
          <mxGeometry x="480" y="190" width="90" height="30" as="geometry" />
        </mxCell>
        <mxCell id="hbApJSWAoA58bv4psaAf-4" value="numpy" style="rounded=0;whiteSpace=wrap;html=1;" vertex="1" parent="1">
          <mxGeometry x="250" y="380" width="90" height="30" as="geometry" />
        </mxCell>
        <mxCell id="hbApJSWAoA58bv4psaAf-5" value="matplotlib" style="rounded=0;whiteSpace=wrap;html=1;" vertex="1" parent="1">
          <mxGeometry x="550" y="280" width="90" height="30" as="geometry" />
        </mxCell>
        <mxCell id="hbApJSWAoA58bv4psaAf-6" value="scikit-learn" style="rounded=0;whiteSpace=wrap;html=1;" vertex="1" parent="1">
          <mxGeometry x="150" y="120" width="90" height="30" as="geometry" />
        </mxCell>
      </root>
    </mxGraphModel>
  </diagram>
</mxfile>
